<svg width="19" height="19" viewBox="0 0 19 19" fill="none" xmlns="http://www.w3.org/2000/svg">
<path d="M14 11H16V14H19V16H16V19H14V16H11V14H14V11ZM2 0H16C17.1 0 18 0.89 18 2V9.8C17.39 9.45 16.72 9.2 16 9.08V2H12.78C12.67 3 11.83 3.79 10.8 3.79H8.8V5.79C8.8 6.35 8.35 6.79 7.8 6.79H5.8V8.79H11.8C12.23 8.79 12.6 9.06 12.74 9.44C10.6 10.31 9.07 12.39 9 14.83C7.7 14.79 6.8 13.9 6.8 12.79V11.79L2 7.29V16H9.08C9.2 16.72 9.45 17.39 9.8 18H2C0.9 18 0 17.11 0 16V2C0 0.89 0.89 0 2 0Z" fill="white"/>
</svg>
