<svg width="528" height="421" viewBox="0 0 528 421" fill="none" xmlns="http://www.w3.org/2000/svg">
<g clip-path="url(#clip0_7_2)">
<path d="M463.803 408.532L452.826 408.531L447.605 366.154L463.805 366.156L463.803 408.532Z" fill="#FFB6B6"/>
<path d="M464.189 419.993L430.435 419.992V419.564C430.436 412.302 436.318 406.415 443.573 406.415H443.574L449.74 401.733L461.243 406.415L464.19 406.416L464.189 419.993Z" fill="#2F2E41"/>
<path d="M415.141 408.532L404.164 408.531L398.943 366.154L415.143 366.156L415.141 408.532Z" fill="#FFB6B6"/>
<path d="M415.527 419.993L381.773 419.992V419.564C381.774 412.302 387.655 406.415 394.911 406.415H394.912L401.077 401.733L412.581 406.415L415.528 406.416L415.527 419.993Z" fill="#2F2E41"/>
<path d="M409.91 172.038L473.238 173.373C473.238 173.373 484.623 192.055 475.93 218.41L476.904 225.749L472.905 237.091L470.905 271.787L472.905 277.124L471.571 287.132C471.571 287.132 476.904 353.187 463.572 386.547L447.574 385.88L441.574 298.84L444.907 292.47L444.24 289.801L436.241 249.769L428.242 270.452V281.944L420.909 290.469C420.909 290.469 423.576 369.2 416.243 385.213H398.331L391.579 278.459L398.245 216.408L396.911 212.405L398.911 210.403L397.578 203.731L409.91 172.038L409.91 172.038Z" fill="#2F2E41"/>
<path d="M436.908 50.2718L456.239 45.6013L461.572 58.2783C461.572 58.2783 489.163 72.957 490.497 92.9734C490.497 92.9734 494.236 108.987 490.903 116.326C487.57 123.665 473.571 147.018 473.571 147.018C473.571 147.018 486.237 187.718 482.904 189.719C479.571 191.721 400.244 187.718 400.244 183.714C400.244 179.711 413.446 137.677 413.446 137.677L416.243 65.6177L434.241 58.9456L436.908 50.2718L436.908 50.2718V50.2718Z" fill="#3F3D56"/>
<path d="M488.445 214.516C484.399 212.475 482.771 207.538 484.81 203.489C485.015 203.081 485.257 202.705 485.517 202.348L474.76 128.529L489.652 129.006L497.442 200.931C500.266 203.328 501.202 207.423 499.462 210.878C497.424 214.928 492.491 216.557 488.445 214.516H488.445Z" fill="#FFB6B6"/>
<path d="M347.137 179.676C345.508 175.445 347.615 170.692 351.843 169.062C352.268 168.898 352.7 168.782 353.132 168.692L394.687 106.763L405.402 117.127L362.919 175.657C363.403 179.331 361.349 182.995 357.742 184.386C353.514 186.017 348.766 183.908 347.137 179.676V179.676Z" fill="#FFB6B6"/>
<path d="M461.308 109.91C457.1 95.4413 464.088 80.6794 479.144 80.7507C483.495 80.7713 486.876 82.0352 487.813 85.5337C491.093 97.7784 492.881 116.262 492.881 116.262L496.771 135.941L494.415 140.027L499.327 153.215L496.944 159.455L496.429 191.316L484.43 190.649L471.21 166.36L466.154 163.351C466.154 163.351 470.214 124.079 462.139 112.771L461.307 109.91H461.308V109.91Z" fill="#3F3D56"/>
<path d="M407.562 74.3018C414.578 60.9688 432.54 57.8106 443.32 68.3308C446.435 71.3715 447.99 74.6315 446.236 77.7994C440.096 88.8871 425.863 100.825 425.863 100.825L408.336 129.028L403.805 130.328L398.185 143.23L386.141 157.404L370.188 165.824L360.856 156.483L362.838 144.475L386.854 112.447C386.854 112.447 404.133 90.6857 406.174 76.9381L407.562 74.3018V74.3018V74.3018Z" fill="#3F3D56"/>
<path d="M440.581 46.3722C441.023 46.4253 441.463 46.4652 441.901 46.4852C443.263 46.5599 444.609 46.4822 445.906 46.2621C449.847 45.6298 453.428 43.7613 456.191 41.0213C459.112 38.13 461.111 34.271 461.651 29.8778C462.917 19.5079 455.54 10.0616 445.179 8.79448C434.967 7.53823 425.658 14.6871 424.173 24.819C424.149 24.9759 424.125 25.1261 424.108 25.2822C422.843 35.6588 430.213 45.0992 440.581 46.3722V46.3722V46.3722Z" fill="#FFB6B6"/>
<path d="M419.912 24.1249C422.596 25.4533 426.981 21.277 428.661 23.6798C428.934 23.1606 429.235 22.6584 429.533 22.1835C429.802 21.7585 430.187 20.8514 430.633 20.696C430.069 22.0586 430.193 23.904 430.779 25.4851C433.426 26.4752 436.892 24.2836 439.342 21.6913C443.189 17.6266 449.472 28.0497 447.986 33.4439C449.877 31.1333 453.979 32.4365 455.369 35.0784C456.759 37.7138 454.411 39.8253 453.909 42.7649L457.699 42.2832C460.09 39.9522 459.923 36.0244 461.892 33.3228C465.181 28.8015 466.455 24.1884 463.983 19.5222C461.789 15.3964 461.584 10.0567 457.561 7.67801C459.319 6.81773 453.067 8.1617 454.737 5.35813C456.414 2.56044 447.474 2.22087 446.891 3.71972C444.336 0.659504 441.76 -1.35816 438.617 1.09395C435.531 3.50643 435.85 6.04222 432.226 5.81497C430.525 5.70949 430.712 8.88364 429.7 10.2675C428.695 11.644 424.787 12.5276 424.597 12.3803C423.565 11.5721 420.054 18.4526 420.054 18.4526C420.054 18.4526 417.207 22.7787 419.912 24.1249H419.912Z" fill="#2F2E41"/>
<path d="M183.371 144.217C246.875 144.217 298.355 195.743 298.355 259.305C298.355 322.867 246.875 374.393 183.371 374.393C119.867 374.393 31.9807 311.374 68.3875 259.305C104.794 207.236 119.867 144.217 183.371 144.217Z" fill="#F2F2F2"/>
<path d="M337.269 149.691C336.237 149.691 335.399 150.531 335.399 151.563V211.446C335.399 212.478 336.237 213.318 337.269 213.318C338.3 213.318 339.138 212.478 339.138 211.446V151.563C339.138 150.531 338.3 149.691 337.269 149.691Z" fill="#3F3D56"/>
<path d="M23.1667 104.779C22.1356 104.779 21.2971 105.618 21.2971 106.65V121.621C21.2971 122.653 22.1356 123.492 23.1667 123.492C24.1979 123.492 25.0364 122.653 25.0364 121.621V106.65C25.0364 105.618 24.1979 104.779 23.1667 104.779Z" fill="#3F3D56"/>
<path d="M23.1667 149.691C22.1356 149.691 21.2971 150.531 21.2971 151.563V180.569C21.2971 181.601 22.1356 182.44 23.1667 182.44C24.1979 182.44 25.0364 181.601 25.0364 180.569V151.563C25.0364 150.531 24.1979 149.691 23.1667 149.691Z" fill="#3F3D56"/>
<path d="M23.1667 190.861C22.1356 190.861 21.2971 191.701 21.2971 192.733V221.739C21.2971 222.771 22.1356 223.61 23.1667 223.61C24.1979 223.61 25.0364 222.771 25.0364 221.739V192.733C25.0364 191.701 24.1979 190.861 23.1667 190.861Z" fill="#3F3D56"/>
<path d="M190.85 45.8311C189.819 45.8311 188.98 46.6704 188.98 47.7025V76.7085C188.98 77.7406 189.819 78.5799 190.85 78.5799C191.881 78.5799 192.72 77.7406 192.72 76.7085V47.7025C192.72 46.6704 191.881 45.8311 190.85 45.8311Z" fill="#3F3D56"/>
<path d="M477.277 404.782C479.209 404.903 480.276 402.501 478.815 401.102L478.669 400.523C478.689 400.477 478.708 400.431 478.727 400.384C480.68 395.723 487.299 395.755 489.236 400.423C490.955 404.567 493.143 408.717 493.682 413.098C493.923 415.032 493.815 417.002 493.386 418.9C497.413 410.094 499.533 400.479 499.533 390.81C499.533 388.38 499.4 385.951 499.128 383.528C498.905 381.545 498.597 379.575 498.198 377.623C496.043 367.071 491.375 357.021 484.643 348.627C481.407 346.856 478.708 344.088 477.077 340.77C476.492 339.574 476.033 338.286 475.816 336.975C476.184 337.023 477.204 331.409 476.927 331.065C477.44 330.285 478.358 329.897 478.919 329.137C481.707 325.353 485.548 326.014 487.553 331.155C491.837 333.319 491.878 336.908 489.25 340.359C487.578 342.555 487.348 345.527 485.881 347.877C486.032 348.071 486.189 348.258 486.34 348.452C489.108 352.005 491.502 355.825 493.52 359.837C492.95 355.378 493.792 350.005 495.228 346.542C496.862 342.596 499.925 339.272 502.622 335.861C505.863 331.763 512.507 333.552 513.078 338.746C513.083 338.796 513.088 338.847 513.094 338.897C512.693 339.123 512.301 339.363 511.917 339.617C509.73 341.065 510.486 344.458 513.077 344.859L513.136 344.868C512.991 346.312 512.744 347.744 512.381 349.153C515.842 362.548 508.371 367.426 497.703 367.645C497.468 367.766 497.238 367.887 497.003 368.002C498.084 371.048 498.947 374.172 499.587 377.339C500.161 380.137 500.559 382.965 500.782 385.806C501.06 389.39 501.036 392.992 500.734 396.569L500.752 396.442C501.519 392.502 503.657 388.822 506.76 386.271C511.383 382.47 517.915 381.07 522.903 378.015C525.304 376.544 528.38 378.444 527.961 381.231L527.941 381.364C527.198 381.666 526.474 382.017 525.773 382.41C525.373 382.636 524.98 382.876 524.597 383.13C522.41 384.578 523.166 387.971 525.757 388.371L525.816 388.38C525.858 388.386 525.894 388.393 525.936 388.399C524.662 391.426 522.887 394.237 520.665 396.66C518.501 408.353 509.208 409.463 499.267 406.057H499.261C498.174 410.796 496.586 415.425 494.545 419.836H477.699C477.639 419.649 477.585 419.456 477.53 419.268C479.088 419.365 480.658 419.274 482.192 418.99C480.942 417.455 479.692 415.908 478.442 414.373C478.412 414.343 478.388 414.313 478.364 414.283C477.73 413.497 477.09 412.717 476.456 411.932L476.455 411.931C476.416 409.519 476.704 407.115 477.277 404.782L477.277 404.782L477.277 404.782H477.277Z" fill="#F2F2F2"/>
<path d="M0 419.887C0 420.504 0.495486 421 1.1125 421H526.756C527.373 421 527.869 420.504 527.869 419.887C527.869 419.269 527.373 418.773 526.756 418.773H1.1125C0.495486 418.773 0 419.269 0 419.887Z" fill="#CCCCCC"/>
<path d="M133.097 251.547H68.3875V249.676H133.097C138.718 249.676 143.291 245.098 143.291 239.471V195.679H145.161V239.471C145.161 246.13 139.749 251.547 133.097 251.547H133.097Z" fill="#6C63FF"/>
<path d="M256.568 346.477H109.393V348.348H256.568V346.477Z" fill="#6C63FF"/>
<path d="M349.946 239.034H271.335C267.092 239.034 263.641 235.58 263.641 231.333V153.61C263.641 149.364 267.092 145.91 271.335 145.91H349.946C354.188 145.91 357.64 149.364 357.64 153.61V231.333C357.64 235.58 354.188 239.034 349.946 239.034Z" fill="#E6E6E6"/>
<path d="M285.975 148.204C274.906 148.204 265.933 157.185 265.933 168.264V229.684C265.933 233.581 269.089 236.74 272.982 236.74H321.051C339.992 236.74 355.347 221.371 355.347 202.412V155.259C355.347 151.363 352.191 148.204 348.298 148.204H285.975V148.204Z" fill="white"/>
<path d="M331.695 170.791H289.421C288.615 170.791 287.958 170.134 287.958 169.327C287.958 168.52 288.615 167.863 289.421 167.863H331.695C332.501 167.863 333.157 168.52 333.157 169.327C333.157 170.134 332.501 170.791 331.695 170.791Z" fill="#E6E6E6"/>
<path d="M331.695 202.009H289.421C288.615 202.009 287.958 201.352 287.958 200.544C287.958 199.737 288.615 199.081 289.421 199.081H331.695C332.501 199.081 333.157 199.737 333.157 200.544C333.157 201.352 332.501 202.009 331.695 202.009Z" fill="#E6E6E6"/>
<path d="M348.861 186.41H272.255C271.448 186.41 270.792 185.753 270.792 184.946C270.792 184.139 271.448 183.482 272.255 183.482H348.861C349.668 183.482 350.323 184.139 350.323 184.946C350.323 185.753 349.668 186.41 348.861 186.41Z" fill="#E6E6E6"/>
<path d="M349.643 214.702H321.969C321.163 214.702 320.506 214.045 320.506 213.238C320.506 212.43 321.163 211.774 321.969 211.774H349.643C350.45 211.774 351.106 212.43 351.106 213.238C351.106 214.045 350.45 214.702 349.643 214.702Z" fill="#E6E6E6"/>
<path d="M184.826 393.893H122.403C119.035 393.893 116.294 391.15 116.294 387.778V326.061C116.294 322.689 119.035 319.946 122.403 319.946H184.826C188.195 319.946 190.935 322.689 190.935 326.061V387.778C190.935 391.15 188.195 393.893 184.826 393.893H184.826Z" fill="#E6E6E6"/>
<path d="M134.028 321.768C125.239 321.768 118.114 328.899 118.114 337.696V386.469C118.114 389.563 120.62 392.071 123.711 392.071H161.881C176.922 392.071 189.115 379.867 189.115 364.813V327.37C189.115 324.276 186.609 321.768 183.518 321.768H134.028L134.028 321.768H134.028Z" fill="white"/>
<path d="M170.333 339.703H136.765C136.125 339.703 135.604 339.182 135.604 338.541C135.604 337.9 136.125 337.378 136.765 337.378H170.333C170.974 337.378 171.494 337.9 171.494 338.541C171.494 339.182 170.974 339.703 170.333 339.703Z" fill="#E6E6E6"/>
<path d="M170.333 364.492H136.765C136.125 364.492 135.604 363.971 135.604 363.33C135.604 362.689 136.125 362.167 136.765 362.167H170.333C170.974 362.167 171.494 362.689 171.494 363.33C171.494 363.971 170.974 364.492 170.333 364.492Z" fill="#E6E6E6"/>
<path d="M183.964 352.106H123.134C122.493 352.106 121.972 351.584 121.972 350.943C121.972 350.302 122.493 349.781 123.134 349.781H183.964C184.605 349.781 185.126 350.302 185.126 350.943C185.126 351.584 184.605 352.106 183.964 352.106Z" fill="#E6E6E6"/>
<path d="M184.585 374.571H162.61C161.97 374.571 161.449 374.05 161.449 373.409C161.449 372.768 161.97 372.246 162.61 372.246H184.585C185.226 372.246 185.747 372.768 185.747 373.409C185.747 374.05 185.226 374.571 184.585 374.571Z" fill="#E6E6E6"/>
<path d="M141.196 195.207H95.032C92.5407 195.207 90.514 193.178 90.514 190.684V145.042C90.514 142.548 92.5407 140.52 95.032 140.52H141.196C143.688 140.52 145.714 142.548 145.714 145.042V190.684C145.714 193.178 143.688 195.207 141.196 195.207Z" fill="#E6E6E6"/>
<path d="M103.629 141.867C97.1294 141.867 91.8601 147.141 91.8601 153.647V189.716C91.8601 192.004 93.7134 193.859 95.9995 193.859H124.228C135.351 193.859 144.368 184.834 144.368 173.7V146.01C144.368 143.722 142.515 141.867 140.229 141.867H103.629V141.867L103.629 141.867Z" fill="white"/>
<path d="M130.478 155.131H105.653C105.18 155.131 104.794 154.745 104.794 154.271C104.794 153.797 105.18 153.412 105.653 153.412H130.478C130.952 153.412 131.337 153.797 131.337 154.271C131.337 154.745 130.952 155.131 130.478 155.131Z" fill="#E6E6E6"/>
<path d="M130.478 173.463H105.653C105.18 173.463 104.794 173.078 104.794 172.604C104.794 172.13 105.18 171.744 105.653 171.744H130.478C130.952 171.744 131.337 172.13 131.337 172.604C131.337 173.078 130.952 173.463 130.478 173.463Z" fill="#E6E6E6"/>
<path d="M140.559 164.303H95.5724C95.0988 164.303 94.7134 163.917 94.7134 163.443C94.7134 162.969 95.0988 162.584 95.5724 162.584H140.559C141.033 162.584 141.418 162.969 141.418 163.443C141.418 163.917 141.033 164.303 140.559 164.303Z" fill="#E6E6E6"/>
<path d="M141.019 180.917H124.767C124.293 180.917 123.908 180.532 123.908 180.058C123.908 179.584 124.293 179.198 124.767 179.198H141.019C141.492 179.198 141.877 179.584 141.877 180.058C141.877 180.532 141.492 180.917 141.019 180.917Z" fill="#E6E6E6"/>
<path d="M275.919 252.755C281.082 252.755 285.267 248.566 285.267 243.398C285.267 238.231 281.082 234.042 275.919 234.042C270.756 234.042 266.571 238.231 266.571 243.398C266.571 248.566 270.756 252.755 275.919 252.755Z" fill="#6C63FF"/>
<path d="M144.109 205.036C149.271 205.036 153.457 200.846 153.457 195.679C153.457 190.511 149.271 186.322 144.109 186.322C138.946 186.322 134.76 190.511 134.76 195.679C134.76 200.846 138.946 205.036 144.109 205.036Z" fill="#6C63FF"/>
<path d="M188.98 333.224C194.143 333.224 198.329 329.034 198.329 323.867C198.329 318.699 194.143 314.51 188.98 314.51C183.817 314.51 179.632 318.699 179.632 323.867C179.632 329.034 183.817 333.224 188.98 333.224Z" fill="#6C63FF"/>
<path d="M209.173 73.7809C215.608 73.7809 220.825 68.6698 220.825 62.365C220.825 56.0601 215.608 50.9491 209.173 50.9491C202.739 50.9491 197.522 56.0601 197.522 62.365C197.522 68.6698 202.739 73.7809 209.173 73.7809Z" fill="#F2F2F2"/>
<path d="M302.575 58.4595H239.862C237.71 58.4595 235.96 56.7075 235.96 54.5541C235.96 52.4007 237.71 50.6486 239.862 50.6486H302.575C304.726 50.6486 306.477 52.4007 306.477 54.5541C306.477 56.7075 304.726 58.4595 302.575 58.4595Z" fill="#F2F2F2"/>
<path d="M351.516 71.6779H239.862C237.71 71.6779 235.96 69.9259 235.96 67.7725C235.96 65.6191 237.71 63.8671 239.862 63.8671H351.516C353.668 63.8671 355.418 65.6191 355.418 67.7725C355.418 69.9259 353.668 71.6779 351.516 71.6779Z" fill="#F2F2F2"/>
<path d="M40.5333 121.76C44.6977 121.76 48.0736 118.452 48.0736 114.372C48.0736 110.292 44.6977 106.984 40.5333 106.984C36.3689 106.984 32.9929 110.292 32.9929 114.372C32.9929 118.452 36.3689 121.76 40.5333 121.76Z" fill="#F2F2F2"/>
<path d="M100.981 111.844H60.3944C59.002 111.844 57.8691 110.711 57.8691 109.317C57.8691 107.923 59.002 106.789 60.3944 106.789H100.981C102.374 106.789 103.506 107.923 103.506 109.317C103.506 110.711 102.374 111.844 100.981 111.844H100.981Z" fill="#F2F2F2"/>
<path d="M132.655 120.399H60.3944C59.002 120.399 57.8691 119.265 57.8691 117.872C57.8691 116.478 59.002 115.344 60.3944 115.344H132.655C134.048 115.344 135.181 116.478 135.181 117.872C135.181 119.265 134.048 120.399 132.655 120.399Z" fill="#F2F2F2"/>
<path d="M266.761 384.686C270.926 384.686 274.302 381.378 274.302 377.298C274.302 373.217 270.926 369.91 266.761 369.91C262.597 369.91 259.221 373.217 259.221 377.298C259.221 381.378 262.597 384.686 266.761 384.686Z" fill="#F2F2F2"/>
<path d="M327.209 374.77H286.623C285.23 374.77 284.097 373.636 284.097 372.243C284.097 370.849 285.23 369.715 286.623 369.715H327.209C328.602 369.715 329.735 370.849 329.735 372.243C329.735 373.636 328.602 374.77 327.209 374.77Z" fill="#F2F2F2"/>
<path d="M358.883 383.325H286.623C285.23 383.325 284.097 382.191 284.097 380.797C284.097 379.404 285.23 378.27 286.623 378.27H358.883C360.276 378.27 361.409 379.404 361.409 380.797C361.409 382.191 360.276 383.325 358.883 383.325Z" fill="#F2F2F2"/>
<path d="M176.126 145.938H174.257V234.828H176.126V145.938Z" fill="#E6E6E6"/>
<path d="M175.191 240.442C178.289 240.442 180.8 237.928 180.8 234.828C180.8 231.727 178.289 229.214 175.191 229.214C172.094 229.214 169.582 231.727 169.582 234.828C169.582 237.928 172.094 240.442 175.191 240.442Z" fill="#E6E6E6"/>
<path d="M260.261 305.004C263.358 305.004 265.87 302.49 265.87 299.389C265.87 296.289 263.358 293.775 260.261 293.775C257.163 293.775 254.652 296.289 254.652 299.389C254.652 302.49 257.163 305.004 260.261 305.004Z" fill="#E6E6E6"/>
<path d="M108.819 228.278C111.916 228.278 114.428 225.764 114.428 222.664C114.428 219.563 111.916 217.05 108.819 217.05C105.721 217.05 103.21 219.563 103.21 222.664C103.21 225.764 105.721 228.278 108.819 228.278Z" fill="#E6E6E6"/>
<path d="M106.746 222.672L76.0715 223.602L76.1281 225.473L106.802 224.544L106.746 222.672Z" fill="#E6E6E6"/>
<path d="M305.891 320.882H259.377V299.389H261.247V319.01H305.891V320.882Z" fill="#E6E6E6"/>
<path d="M106.516 289.579C109.614 289.579 112.125 287.066 112.125 283.965C112.125 280.864 109.614 278.351 106.516 278.351C103.419 278.351 100.907 280.864 100.907 283.965C100.907 287.066 103.419 289.579 106.516 289.579Z" fill="#E6E6E6"/>
<path d="M151.592 305.457H105.079V283.965H106.949V303.586H151.592V305.457Z" fill="#E6E6E6"/>
<path d="M293.914 262.603H70.5072V264.474H293.914V262.603Z" fill="#E6E6E6"/>
</g>
<defs>
<clipPath id="clip0_7_2">
<rect width="528" height="421" fill="white"/>
</clipPath>
</defs>
</svg>
