<svg width="18" height="18" viewBox="0 0 18 18" fill="none" xmlns="http://www.w3.org/2000/svg">
<path d="M2 0C0.89 0 0 0.89 0 2V16C0 16.5304 0.210714 17.0391 0.585786 17.4142C0.960859 17.7893 1.46957 18 2 18H16C16.5304 18 17.0391 17.7893 17.4142 17.4142C17.7893 17.0391 18 16.5304 18 16V2C18 0.89 17.1 0 16 0H2ZM12.78 2H16V14.18C15.74 13.38 14.69 12.79 13.8 12.79H12.8V9.79C12.8 9.52478 12.6946 9.27043 12.5071 9.08289C12.3196 8.89536 12.0652 8.79 11.8 8.79H5.8V6.79H7.8C8.06522 6.79 8.31957 6.68464 8.50711 6.49711C8.69464 6.30957 8.8 6.05522 8.8 5.79V3.79H10.8C11.83 3.79 12.67 3 12.78 2ZM2 7.29L6.8 11.79V12.79C6.8 13.9 7.7 14.79 8.8 14.79V16H2V7.29Z" fill="white"/>
</svg>
