<svg width="414" height="103" viewBox="0 0 414 103" fill="none" xmlns="http://www.w3.org/2000/svg">
<line y1="100.5" x2="413.108" y2="100.5" stroke="url(#paint0_linear_7_107)" stroke-width="4" stroke-dasharray="8 8"/>
<path d="M69 55.5C66.5 54.3125 64.0521 53.1667 61.6562 52.0625C60.6354 51.6042 59.5729 51.1354 58.4688 50.6562C57.3646 50.1562 56.2708 49.6875 55.1875 49.25C54.125 48.7917 53.0938 48.375 52.0938 48C51.1146 47.6042 50.2188 47.2708 49.4062 47C49.5312 45.1667 49.5938 43.3958 49.5938 41.6875C49.5938 40.8958 49.5833 40.1667 49.5625 39.5C49.5417 38.8125 49.5208 38.2188 49.5 37.7188C49.4583 37.1354 49.4271 36.6042 49.4062 36.125C50.0729 35.7917 50.8333 35.3646 51.6875 34.8438C52.5625 34.3229 53.4792 33.75 54.4375 33.125C55.4167 32.5 56.4167 31.8438 57.4375 31.1562C58.4583 30.4479 59.4479 29.7604 60.4062 29.0938C62.6562 27.5104 64.9896 25.8229 67.4062 24.0312L70.6562 33.5C69.5729 33.8333 68.3854 34.25 67.0938 34.75C65.8021 35.25 64.4688 35.8021 63.0938 36.4062C61.7396 37.0104 60.375 37.6667 59 38.375C57.625 39.0833 56.3229 39.8229 55.0938 40.5938C56.0521 41.2188 57.0208 41.8021 58 42.3438C59 42.8646 60.0938 43.3854 61.2812 43.9062C62.4896 44.4271 63.8438 44.9583 65.3438 45.5C66.8646 46.0208 68.6354 46.6042 70.6562 47.25L69 55.5ZM101.5 41.5625C101.5 44.9583 101.177 47.8958 100.531 50.375C99.9062 52.8333 99.0938 54.9375 98.0938 56.6875C97.0938 58.4167 95.9688 59.8229 94.7188 60.9062C93.4688 61.9896 92.2188 62.8229 90.9688 63.4062C89.7188 64.0104 88.5417 64.4167 87.4375 64.625C86.3333 64.8542 85.4271 64.9688 84.7188 64.9688C84.5521 64.9688 84.1771 64.9583 83.5938 64.9375C83.0312 64.9167 82.3333 64.8646 81.5 64.7812C80.6667 64.7188 79.7188 64.6146 78.6562 64.4688C77.6146 64.3229 76.5208 64.1146 75.375 63.8438C75.3958 59.7188 75.4167 56.1458 75.4375 53.125C75.4792 50.0833 75.5104 47.4688 75.5312 45.2812C75.5521 43.0938 75.5729 41.2604 75.5938 39.7812C75.6146 38.3021 75.625 37.0312 75.625 35.9688C75.6458 34.9062 75.6562 34 75.6562 33.25C75.6771 32.4792 75.6875 31.7292 75.6875 31C75.6875 29.8542 75.6771 28.6771 75.6562 27.4688C75.6354 26.2396 75.5938 25.0521 75.5312 23.9062C75.4688 22.7604 75.3854 21.6875 75.2812 20.6875C75.1771 19.6875 75.0417 18.8333 74.875 18.125C76.5 18.0208 77.9792 17.9583 79.3125 17.9375C80.6667 17.8958 81.8333 17.875 82.8125 17.875C85.2708 17.875 87.4375 18.1771 89.3125 18.7812C91.1875 19.3646 92.8125 20.1875 94.1875 21.25C95.5833 22.2917 96.7396 23.5521 97.6562 25.0312C98.5938 26.4896 99.3438 28.0938 99.9062 29.8438C100.49 31.5938 100.896 33.4688 101.125 35.4688C101.375 37.4479 101.5 39.4792 101.5 41.5625ZM93.375 40.5938C93.375 36.9062 93.1979 33.9062 92.8438 31.5938C92.5104 29.2604 91.9583 27.4479 91.1875 26.1562C90.4375 24.8646 89.4479 23.9896 88.2188 23.5312C87.0104 23.0521 85.5417 22.8125 83.8125 22.8125H82.875L83.25 59.5312C83.6667 59.6979 84.0521 59.8125 84.4062 59.875C84.7812 59.9167 85.1458 59.9375 85.5 59.9375C86.8958 59.9375 88.0833 59.6146 89.0625 58.9688C90.0625 58.3021 90.875 57.2188 91.5 55.7188C92.1458 54.1979 92.6146 52.2083 92.9062 49.75C93.2188 47.2708 93.375 44.2188 93.375 40.5938ZM127.562 56.2812C127.562 57.5104 127.281 58.6667 126.719 59.75C126.156 60.8333 125.396 61.7708 124.438 62.5625C123.479 63.3542 122.354 63.9792 121.062 64.4375C119.771 64.8958 118.396 65.125 116.938 65.125C115.958 65.125 114.969 64.9896 113.969 64.7188C112.969 64.4479 112.01 64 111.094 63.375C110.177 62.75 109.312 61.9271 108.5 60.9062C107.688 59.8854 106.979 58.6354 106.375 57.1562C105.792 55.6771 105.323 53.9479 104.969 51.9688C104.635 49.9688 104.469 47.6771 104.469 45.0938C104.469 42.6562 104.635 40.5 104.969 38.625C105.323 36.75 105.792 35.1146 106.375 33.7188C106.979 32.3229 107.677 31.1562 108.469 30.2188C109.26 29.2604 110.104 28.4896 111 27.9062C111.917 27.3021 112.854 26.875 113.812 26.625C114.792 26.375 115.75 26.25 116.688 26.25C118.083 26.25 119.406 26.4792 120.656 26.9375C121.906 27.375 123 28.0312 123.938 28.9062C124.875 29.7812 125.615 30.8646 126.156 32.1562C126.719 33.4271 127 34.8958 127 36.5625C127 38.0625 126.688 39.5833 126.062 41.125C125.458 42.6458 124.552 44.0938 123.344 45.4688C122.135 46.8229 120.635 48.0625 118.844 49.1875C117.073 50.2917 115.031 51.1667 112.719 51.8125C112.844 53.1042 113.021 54.2812 113.25 55.3438C113.5 56.4062 113.802 57.3125 114.156 58.0625C114.531 58.8125 114.958 59.3958 115.438 59.8125C115.938 60.2292 116.51 60.4375 117.156 60.4375C117.573 60.4167 117.969 60.3438 118.344 60.2188C118.677 60.1146 119.01 59.9479 119.344 59.7188C119.698 59.4896 119.99 59.1562 120.219 58.7188C119.677 58.4688 119.26 58.1458 118.969 57.75C118.677 57.3542 118.458 56.9792 118.312 56.625C118.146 56.2083 118.052 55.7708 118.031 55.3125C118.031 54.3125 118.229 53.5 118.625 52.875C119.021 52.25 119.49 51.7604 120.031 51.4062C120.573 51.0521 121.125 50.8125 121.688 50.6875C122.25 50.5417 122.698 50.4688 123.031 50.4688C123.385 50.4688 123.812 50.5417 124.312 50.6875C124.833 50.8333 125.333 51.1146 125.812 51.5312C126.292 51.9479 126.698 52.5417 127.031 53.3125C127.385 54.0625 127.562 55.0521 127.562 56.2812ZM119.844 36.625C119.844 35.875 119.771 35.1667 119.625 34.5C119.5 33.8125 119.302 33.2188 119.031 32.7188C118.781 32.2188 118.458 31.8229 118.062 31.5312C117.688 31.2188 117.25 31.0625 116.75 31.0625C115.896 31.0625 115.198 31.4583 114.656 32.25C114.115 33.0208 113.677 34.0521 113.344 35.3438C113.01 36.6354 112.781 38.125 112.656 39.8125C112.531 41.5 112.469 43.2604 112.469 45.0938V47.375C113.531 46.8125 114.51 46.1458 115.406 45.375C116.323 44.6042 117.104 43.7604 117.75 42.8438C118.417 41.9062 118.927 40.9167 119.281 39.875C119.656 38.8333 119.844 37.75 119.844 36.625ZM155.188 28.3125C154.188 31.4167 153.25 34.4271 152.375 37.3438C151.5 40.2604 150.677 43.1771 149.906 46.0938C149.135 48.9896 148.406 51.9167 147.719 54.875C147.031 57.8333 146.385 60.9062 145.781 64.0938L136.75 64.2812C136.188 61.1771 135.615 58.1771 135.031 55.2812C134.469 52.3646 133.865 49.4688 133.219 46.5938C132.594 43.7188 131.927 40.8229 131.219 37.9062C130.51 34.9896 129.75 31.9792 128.938 28.875L137.906 28.5C138.385 32.9583 138.917 37.5104 139.5 42.1562C140.083 46.8021 140.771 51.3646 141.562 55.8438C142.583 51.3229 143.406 46.7188 144.031 42.0312C144.677 37.3229 145.177 32.7083 145.531 28.1875L155.188 28.3125ZM178.562 64.9688C177.062 64.9271 175.646 64.9062 174.312 64.9062C172.979 64.9062 171.729 64.9062 170.562 64.9062C168.188 64.9062 166.146 64.9271 164.438 64.9688C162.75 65.0312 161.344 65.0833 160.219 65.125C158.927 65.1875 157.833 65.25 156.938 65.3125C157.083 63.9167 157.208 62.5 157.312 61.0625C157.438 59.625 157.542 58.2083 157.625 56.8125C157.708 55.4167 157.781 54.0625 157.844 52.75C157.906 51.4375 157.958 50.1979 158 49.0312C158.083 46.3229 158.135 43.7083 158.156 41.1875C158.135 38.6875 158.083 36.125 158 33.5C157.958 32.375 157.906 31.1979 157.844 29.9688C157.781 28.7188 157.708 27.4479 157.625 26.1562C157.542 24.8646 157.438 23.5729 157.312 22.2812C157.208 20.9688 157.083 19.6979 156.938 18.4688L166.156 18C165.76 22.7083 165.49 27.25 165.344 31.625C165.198 35.9792 165.125 40 165.125 43.6875C165.125 47.2292 165.156 50.2604 165.219 52.7812C165.302 55.3021 165.375 57.2188 165.438 58.5312H165.562C167.188 58.5312 168.771 58.4062 170.312 58.1562C171.875 57.9062 173.271 57.625 174.5 57.3125C175.938 56.9583 177.292 56.5521 178.562 56.0938C178.542 56.3229 178.531 56.6146 178.531 56.9688C178.51 57.2604 178.5 57.6458 178.5 58.125C178.5 58.5833 178.5 59.1458 178.5 59.8125C178.5 60.4792 178.5 61.2396 178.5 62.0938C178.5 62.9271 178.521 63.8854 178.562 64.9688ZM196.219 64.2812C196.094 63.6354 195.979 62.9792 195.875 62.3125C195.771 61.6458 195.688 60.9583 195.625 60.25C194.667 61.6667 193.521 62.75 192.188 63.5C190.854 64.2708 189.396 64.6562 187.812 64.6562C187 64.6562 186.167 64.5208 185.312 64.25C184.458 64 183.677 63.5521 182.969 62.9062C182.281 62.2604 181.708 61.3854 181.25 60.2812C180.812 59.1562 180.594 57.7396 180.594 56.0312C180.594 54.6146 180.802 53.3854 181.219 52.3438C181.635 51.2812 182.177 50.3542 182.844 49.5625C183.51 48.7708 184.26 48.0833 185.094 47.5C185.927 46.9167 186.75 46.3958 187.562 45.9375C188.396 45.4792 189.188 45.0521 189.938 44.6562C190.688 44.2604 191.302 43.8646 191.781 43.4688C192.698 42.7396 193.49 41.9688 194.156 41.1562C194.844 40.3229 195.396 39.4583 195.812 38.5625C195.729 37.125 195.573 35.9479 195.344 35.0312C195.135 34.0938 194.854 33.3542 194.5 32.8125C194.146 32.25 193.708 31.8646 193.188 31.6562C192.688 31.4271 192.115 31.3125 191.469 31.3125C190.51 31.3125 189.698 31.5208 189.031 31.9375C188.385 32.3542 187.854 32.8542 187.438 33.4375C187.958 33.7708 188.354 34.125 188.625 34.5C188.917 34.875 189.135 35.2396 189.281 35.5938C189.448 35.9896 189.542 36.3958 189.562 36.8125C189.562 38.2292 189.156 39.3125 188.344 40.0625C187.552 40.8125 186.531 41.1875 185.281 41.1875C184.635 41.1875 184.042 41.0417 183.5 40.75C182.958 40.4375 182.479 40.0104 182.062 39.4688C181.667 38.9271 181.354 38.2812 181.125 37.5312C180.896 36.7812 180.781 35.9688 180.781 35.0938C180.781 34.2188 180.979 33.2917 181.375 32.3125C181.771 31.3333 182.406 30.4271 183.281 29.5938C184.156 28.7396 185.281 28.0417 186.656 27.5C188.031 26.9375 189.698 26.6562 191.656 26.6562C193.615 26.6562 195.292 27.0417 196.688 27.8125C198.083 28.5625 199.229 29.5729 200.125 30.8438C201.021 32.0938 201.667 33.5417 202.062 35.1875C202.479 36.8333 202.688 38.5312 202.688 40.2812C202.688 41.5938 202.677 43.0208 202.656 44.5625C202.635 46.1042 202.625 47.6875 202.625 49.3125C202.625 50.6667 202.635 52.0208 202.656 53.375C202.677 54.7292 202.719 56.0417 202.781 57.3125C202.844 58.5625 202.927 59.75 203.031 60.875C203.135 61.9792 203.271 62.9688 203.438 63.8438L196.219 64.2812ZM195.75 45.9688C195.021 46.8438 194.24 47.5938 193.406 48.2188C192.781 48.6562 192.104 49.1458 191.375 49.6875C190.667 50.2292 190 50.8021 189.375 51.4062C188.771 52.0104 188.26 52.6458 187.844 53.3125C187.448 53.9583 187.25 54.625 187.25 55.3125C187.25 56.25 187.479 57.0521 187.938 57.7188C188.396 58.3854 189.042 58.7188 189.875 58.7188C190.646 58.7188 191.333 58.5104 191.938 58.0938C192.542 57.6771 193.073 57.1667 193.531 56.5625C194.01 55.9375 194.406 55.2708 194.719 54.5625C195.052 53.8542 195.312 53.2083 195.5 52.625L195.75 45.9688ZM199.875 22.6562C199.271 22.8229 198.74 22.9896 198.281 23.1562C197.823 23.3021 197.375 23.4479 196.938 23.5938C196.521 23.7396 196.104 23.8854 195.688 24.0312C195.292 24.1771 194.854 24.3125 194.375 24.4375C194.188 23.6667 193.958 22.875 193.688 22.0625C193.417 21.25 193.146 20.5 192.875 19.8125C192.625 19.125 192.406 18.5417 192.219 18.0625C192.031 17.5625 191.938 17.2292 191.938 17.0625C191.646 18.0833 191.375 19.0729 191.125 20.0312C190.896 20.8438 190.667 21.6771 190.438 22.5312C190.208 23.3854 190.021 24.0833 189.875 24.625C189.375 24.3958 188.896 24.1979 188.438 24.0312C187.979 23.8646 187.521 23.7083 187.062 23.5625C186.604 23.4167 186.135 23.2812 185.656 23.1562C185.177 23.0312 184.667 22.8854 184.125 22.7188C184.667 21.6562 185.26 20.5208 185.906 19.3125C186.552 18.1042 187.167 16.9688 187.75 15.9062C188.438 14.6771 189.125 13.4479 189.812 12.2188C190.271 12.2604 190.708 12.2917 191.125 12.3125C191.542 12.3333 191.938 12.3438 192.312 12.3438C192.667 12.3438 193 12.3438 193.312 12.3438C193.646 12.3229 193.927 12.3021 194.156 12.2812C194.427 12.2604 194.667 12.2396 194.875 12.2188C195.521 13.6979 196.156 15.1042 196.781 16.4375C197.052 17 197.323 17.5833 197.594 18.1875C197.885 18.7708 198.156 19.3438 198.406 19.9062C198.677 20.4479 198.938 20.9583 199.188 21.4375C199.438 21.9167 199.667 22.3229 199.875 22.6562ZM215.5 28.375L215.312 30.9375C216 29.7917 216.729 28.9167 217.5 28.3125C218.292 27.7083 219.021 27.2812 219.688 27.0312C220.354 26.7812 220.906 26.6458 221.344 26.625C221.802 26.6042 222.052 26.5938 222.094 26.5938C223.635 26.5938 224.979 26.9479 226.125 27.6562C227.271 28.3646 228.219 29.3958 228.969 30.75C229.719 32.0833 230.271 33.7188 230.625 35.6562C231 37.5729 231.188 39.75 231.188 42.1875C231.188 43.9792 231.156 45.8125 231.094 47.6875C231.052 49.5417 230.948 51.3958 230.781 53.25C230.635 55.0833 230.427 56.875 230.156 58.625C229.906 60.375 229.562 62.0417 229.125 63.625L221.844 62.75C222.323 60.2708 222.698 57.9583 222.969 55.8125C223.24 53.6667 223.438 51.7917 223.562 50.1875C223.708 48.3125 223.792 46.5938 223.812 45.0312C223.812 43.0521 223.75 41.3333 223.625 39.875C223.5 38.3958 223.271 37.1771 222.938 36.2188C222.625 35.2396 222.188 34.5104 221.625 34.0312C221.062 33.5521 220.344 33.3125 219.469 33.3125C218.885 33.4375 218.302 33.8542 217.719 34.5625C217.219 35.1667 216.688 36.1354 216.125 37.4688C215.562 38.7812 215.073 40.6354 214.656 43.0312C214.594 44.6562 214.552 46.2708 214.531 47.875C214.531 49.4583 214.531 51.1458 214.531 52.9375C214.531 54.4583 214.531 56.0938 214.531 57.8438C214.531 59.5938 214.552 61.5729 214.594 63.7812L207.5 63.625C207.562 61.5 207.604 59.25 207.625 56.875C207.667 54.4792 207.688 51.8229 207.688 48.9062C207.688 46.0104 207.667 42.875 207.625 39.5C207.583 36.125 207.5 32.375 207.375 28.25L215.5 28.375ZM259.375 16.0938C258.896 22.1771 258.531 28.2188 258.281 34.2188C258.031 40.1979 257.906 46.2292 257.906 52.3125C257.906 56.375 257.969 60.4479 258.094 64.5312L250.969 64.6562L251.188 58.4688C250.354 60.0312 249.5 61.2292 248.625 62.0625C247.75 62.8958 246.948 63.5208 246.219 63.9375C245.365 64.4167 244.521 64.6979 243.688 64.7812C242.625 64.7812 241.552 64.4792 240.469 63.875C239.385 63.2708 238.406 62.2292 237.531 60.75C236.656 59.2708 235.938 57.3021 235.375 54.8438C234.812 52.3646 234.531 49.2604 234.531 45.5312C234.531 43.0729 234.677 40.9062 234.969 39.0312C235.26 37.1354 235.656 35.4896 236.156 34.0938C236.656 32.6979 237.24 31.5312 237.906 30.5938C238.594 29.6354 239.323 28.8646 240.094 28.2812C240.885 27.6979 241.708 27.2812 242.562 27.0312C243.417 26.7812 244.26 26.6562 245.094 26.6562C245.656 26.6979 246.26 26.8333 246.906 27.0625C247.448 27.2708 248.062 27.5833 248.75 28C249.458 28.3958 250.177 28.9896 250.906 29.7812C250.781 25.1562 250.594 20.5521 250.344 15.9688L259.375 16.0938ZM251.312 48.0312C251.312 44.0104 251.25 39.9792 251.125 35.9375C250.896 35.6042 250.646 35.2604 250.375 34.9062C250.125 34.5521 249.844 34.2292 249.531 33.9375C249.219 33.625 248.885 33.375 248.531 33.1875C248.177 33 247.802 32.9062 247.406 32.9062C246.823 32.9062 246.229 33.1146 245.625 33.5312C245.042 33.9271 244.51 34.625 244.031 35.625C243.552 36.6042 243.156 37.9167 242.844 39.5625C242.552 41.2083 242.406 43.2812 242.406 45.7812C242.406 48.0938 242.51 50.0104 242.719 51.5312C242.927 53.0521 243.208 54.2708 243.562 55.1875C243.917 56.0833 244.323 56.7188 244.781 57.0938C245.24 57.4479 245.729 57.625 246.25 57.625C247.042 57.625 247.719 57.3646 248.281 56.8438C248.865 56.3021 249.344 55.6562 249.719 54.9062C250.115 54.1562 250.438 53.3854 250.688 52.5938C250.938 51.7812 251.146 51.0938 251.312 50.5312V48.0312ZM271.625 19.1562C271.625 19.8229 271.5 20.4583 271.25 21.0625C271 21.6458 270.656 22.1562 270.219 22.5938C269.781 23.0312 269.26 23.3854 268.656 23.6562C268.073 23.9062 267.448 24.0312 266.781 24.0312C266.115 24.0312 265.479 23.9062 264.875 23.6562C264.292 23.3854 263.781 23.0312 263.344 22.5938C262.906 22.1562 262.552 21.6458 262.281 21.0625C262.031 20.4583 261.906 19.8229 261.906 19.1562C261.906 18.4896 262.031 17.8646 262.281 17.2812C262.552 16.6771 262.906 16.1562 263.344 15.7188C263.781 15.2812 264.292 14.9375 264.875 14.6875C265.479 14.4167 266.115 14.2812 266.781 14.2812C267.448 14.2812 268.073 14.4167 268.656 14.6875C269.26 14.9375 269.781 15.2812 270.219 15.7188C270.656 16.1562 271 16.6771 271.25 17.2812C271.5 17.8646 271.625 18.4896 271.625 19.1562ZM271.625 28.625C271.458 30.2708 271.312 32.0521 271.188 33.9688C271.083 35.8646 270.99 37.8125 270.906 39.8125C270.844 41.8125 270.792 43.8229 270.75 45.8438C270.708 47.8646 270.677 49.7917 270.656 51.625C270.635 53.4583 270.615 55.1771 270.594 56.7812C270.594 58.3646 270.594 59.7292 270.594 60.875V64.4062L263.5 64.6562C263.542 63.2188 263.562 61.8229 263.562 60.4688C263.562 59.1146 263.562 57.7604 263.562 56.4062C263.562 54.0521 263.542 51.7604 263.5 49.5312C263.458 47.2812 263.385 45.0312 263.281 42.7812C263.198 40.5312 263.083 38.25 262.938 35.9375C262.792 33.625 262.615 31.2292 262.406 28.75L271.625 28.625ZM290.406 64.2812C290.281 63.6354 290.167 62.9792 290.062 62.3125C289.958 61.6458 289.875 60.9583 289.812 60.25C288.854 61.6667 287.708 62.75 286.375 63.5C285.042 64.2708 283.583 64.6562 282 64.6562C281.188 64.6562 280.354 64.5208 279.5 64.25C278.646 64 277.865 63.5521 277.156 62.9062C276.469 62.2604 275.896 61.3854 275.438 60.2812C275 59.1562 274.781 57.7396 274.781 56.0312C274.781 54.6146 274.99 53.3854 275.406 52.3438C275.823 51.2812 276.365 50.3542 277.031 49.5625C277.698 48.7708 278.448 48.0833 279.281 47.5C280.115 46.9167 280.938 46.3958 281.75 45.9375C282.583 45.4792 283.375 45.0521 284.125 44.6562C284.875 44.2604 285.49 43.8646 285.969 43.4688C286.885 42.7396 287.677 41.9688 288.344 41.1562C289.031 40.3229 289.583 39.4583 290 38.5625C289.917 37.125 289.76 35.9479 289.531 35.0312C289.323 34.0938 289.042 33.3542 288.688 32.8125C288.333 32.25 287.896 31.8646 287.375 31.6562C286.875 31.4271 286.302 31.3125 285.656 31.3125C284.698 31.3125 283.885 31.5208 283.219 31.9375C282.573 32.3542 282.042 32.8542 281.625 33.4375C282.146 33.7708 282.542 34.125 282.812 34.5C283.104 34.875 283.323 35.2396 283.469 35.5938C283.635 35.9896 283.729 36.3958 283.75 36.8125C283.75 38.2292 283.344 39.3125 282.531 40.0625C281.74 40.8125 280.719 41.1875 279.469 41.1875C278.823 41.1875 278.229 41.0417 277.688 40.75C277.146 40.4375 276.667 40.0104 276.25 39.4688C275.854 38.9271 275.542 38.2812 275.312 37.5312C275.083 36.7812 274.969 35.9688 274.969 35.0938C274.969 34.2188 275.167 33.2917 275.562 32.3125C275.958 31.3333 276.594 30.4271 277.469 29.5938C278.344 28.7396 279.469 28.0417 280.844 27.5C282.219 26.9375 283.885 26.6562 285.844 26.6562C287.802 26.6562 289.479 27.0417 290.875 27.8125C292.271 28.5625 293.417 29.5729 294.312 30.8438C295.208 32.0938 295.854 33.5417 296.25 35.1875C296.667 36.8333 296.875 38.5312 296.875 40.2812C296.875 41.5938 296.865 43.0208 296.844 44.5625C296.823 46.1042 296.812 47.6875 296.812 49.3125C296.812 50.6667 296.823 52.0208 296.844 53.375C296.865 54.7292 296.906 56.0417 296.969 57.3125C297.031 58.5625 297.115 59.75 297.219 60.875C297.323 61.9792 297.458 62.9688 297.625 63.8438L290.406 64.2812ZM289.938 45.9688C289.208 46.8438 288.427 47.5938 287.594 48.2188C286.969 48.6562 286.292 49.1458 285.562 49.6875C284.854 50.2292 284.188 50.8021 283.562 51.4062C282.958 52.0104 282.448 52.6458 282.031 53.3125C281.635 53.9583 281.438 54.625 281.438 55.3125C281.438 56.25 281.667 57.0521 282.125 57.7188C282.583 58.3854 283.229 58.7188 284.062 58.7188C284.833 58.7188 285.521 58.5104 286.125 58.0938C286.729 57.6771 287.26 57.1667 287.719 56.5625C288.198 55.9375 288.594 55.2708 288.906 54.5625C289.24 53.8542 289.5 53.2083 289.688 52.625L289.938 45.9688ZM339.75 18.0625C339.104 19.3958 338.333 21.0833 337.438 23.125C336.562 25.1667 335.604 27.4479 334.562 29.9688C333.542 32.4688 332.479 35.1458 331.375 38C330.271 40.8542 329.188 43.7396 328.125 46.6562C327.083 49.5729 326.073 52.4688 325.094 55.3438C324.135 58.1979 323.281 60.8958 322.531 63.4375C321.635 63.3125 320.719 63.1979 319.781 63.0938C318.99 63.0104 318.115 62.9375 317.156 62.875C316.198 62.7917 315.281 62.75 314.406 62.75H313.656C314.823 60.6042 315.99 58.25 317.156 55.6875C318.344 53.125 319.5 50.4792 320.625 47.75C321.75 45.0208 322.833 42.2604 323.875 39.4688C324.917 36.6771 325.885 33.9583 326.781 31.3125C327.677 28.6667 328.479 26.1667 329.188 23.8125C329.917 21.4375 330.521 19.3125 331 17.4375L339.75 18.0625ZM342.531 47.25C344.552 46.6042 346.312 46.0208 347.812 45.5C349.333 44.9583 350.688 44.4271 351.875 43.9062C353.083 43.3854 354.177 42.8646 355.156 42.3438C356.156 41.8021 357.135 41.2188 358.094 40.5938C356.865 39.8229 355.562 39.0833 354.188 38.375C352.833 37.6667 351.469 37.0104 350.094 36.4062C348.74 35.8021 347.406 35.25 346.094 34.75C344.802 34.25 343.615 33.8333 342.531 33.5L345.812 24.0312C348.229 25.8229 350.562 27.5104 352.812 29.0938C353.771 29.7604 354.75 30.4479 355.75 31.1562C356.771 31.8438 357.76 32.5 358.719 33.125C359.698 33.75 360.615 34.3229 361.469 34.8438C362.344 35.3646 363.115 35.7917 363.781 36.125C363.74 36.6042 363.708 37.1354 363.688 37.7188C363.625 38.7188 363.594 40.0417 363.594 41.6875C363.594 43.3958 363.656 45.1667 363.781 47C362.969 47.2708 362.062 47.6042 361.062 48C360.062 48.375 359.031 48.7917 357.969 49.25C356.906 49.6875 355.823 50.1562 354.719 50.6562C353.635 51.1354 352.583 51.6042 351.562 52.0625C349.188 53.1667 346.74 54.3125 344.219 55.5L342.531 47.25Z" fill="url(#paint1_linear_7_107)"/>
<defs>
<linearGradient id="paint0_linear_7_107" x1="0" y1="102.5" x2="413.097" y2="102.5" gradientUnits="userSpaceOnUse">
<stop stop-color="#64BAD0"/>
<stop offset="1" stop-color="#7D79AC"/>
</linearGradient>
<linearGradient id="paint1_linear_7_107" x1="48" y1="41.5" x2="366" y2="41.5" gradientUnits="userSpaceOnUse">
<stop stop-color="#64BBD0"/>
<stop offset="1" stop-color="#7E77AB"/>
</linearGradient>
</defs>
</svg>
