<svg width="178" height="31" viewBox="0 0 178 31" fill="none" xmlns="http://www.w3.org/2000/svg">
<path d="M11.8125 24.7812C10.4062 24.1133 9.0293 23.4688 7.68164 22.8477C7.10742 22.5898 6.50977 22.3262 5.88867 22.0566C5.26758 21.7754 4.65234 21.5117 4.04297 21.2656C3.44531 21.0078 2.86523 20.7734 2.30273 20.5625C1.75195 20.3398 1.24805 20.1523 0.791016 20C0.861328 18.9688 0.896484 17.9727 0.896484 17.0117C0.896484 16.5664 0.890625 16.1562 0.878906 15.7812C0.867188 15.3945 0.855469 15.0605 0.84375 14.7793C0.820312 14.4512 0.802734 14.1523 0.791016 13.8828C1.16602 13.6953 1.59375 13.4551 2.07422 13.1621C2.56641 12.8691 3.08203 12.5469 3.62109 12.1953C4.17188 11.8438 4.73438 11.4746 5.30859 11.0879C5.88281 10.6895 6.43945 10.3027 6.97852 9.92773C8.24414 9.03711 9.55664 8.08789 10.916 7.08008L12.7441 12.4062C12.1348 12.5938 11.4668 12.8281 10.7402 13.1094C10.0137 13.3906 9.26367 13.7012 8.49023 14.041C7.72852 14.3809 6.96094 14.75 6.1875 15.1484C5.41406 15.5469 4.68164 15.9629 3.99023 16.3965C4.5293 16.748 5.07422 17.0762 5.625 17.3809C6.1875 17.6738 6.80273 17.9668 7.4707 18.2598C8.15039 18.5527 8.91211 18.8516 9.75586 19.1562C10.6113 19.4492 11.6074 19.7773 12.7441 20.1406L11.8125 24.7812ZM30.0938 16.9414C30.0938 18.8516 29.9121 20.5039 29.5488 21.8984C29.1973 23.2812 28.7402 24.4648 28.1777 25.4492C27.6152 26.4219 26.9824 27.2129 26.2793 27.8223C25.5762 28.4316 24.873 28.9004 24.1699 29.2285C23.4668 29.5684 22.8047 29.7969 22.1836 29.9141C21.5625 30.043 21.0527 30.1074 20.6543 30.1074C20.5605 30.1074 20.3496 30.1016 20.0215 30.0898C19.7051 30.0781 19.3125 30.0488 18.8438 30.002C18.375 29.9668 17.8418 29.9082 17.2441 29.8262C16.6582 29.7441 16.043 29.627 15.3984 29.4746C15.4102 27.1543 15.4219 25.1445 15.4336 23.4453C15.457 21.7344 15.4746 20.2637 15.4863 19.0332C15.498 17.8027 15.5098 16.7715 15.5215 15.9395C15.5332 15.1074 15.5391 14.3926 15.5391 13.7949C15.5508 13.1973 15.5566 12.6875 15.5566 12.2656C15.5684 11.832 15.5742 11.4102 15.5742 11C15.5742 10.3555 15.5684 9.69336 15.5566 9.01367C15.5449 8.32227 15.5215 7.6543 15.4863 7.00977C15.4512 6.36523 15.4043 5.76172 15.3457 5.19922C15.2871 4.63672 15.2109 4.15625 15.1172 3.75781C16.0312 3.69922 16.8633 3.66406 17.6133 3.65234C18.375 3.62891 19.0312 3.61719 19.582 3.61719C20.9648 3.61719 22.1836 3.78711 23.2383 4.12695C24.293 4.45508 25.207 4.91797 25.9805 5.51562C26.7656 6.10156 27.416 6.81055 27.9316 7.64258C28.459 8.46289 28.8809 9.36523 29.1973 10.3496C29.5254 11.334 29.7539 12.3887 29.8828 13.5137C30.0234 14.627 30.0938 15.7695 30.0938 16.9414ZM25.5234 16.3965C25.5234 14.3223 25.4238 12.6348 25.2246 11.334C25.0371 10.0215 24.7266 9.00195 24.293 8.27539C23.8711 7.54883 23.3145 7.05664 22.623 6.79883C21.9434 6.5293 21.1172 6.39453 20.1445 6.39453H19.6172L19.8281 27.0488C20.0625 27.1426 20.2793 27.207 20.4785 27.2422C20.6895 27.2656 20.8945 27.2773 21.0938 27.2773C21.8789 27.2773 22.5469 27.0957 23.0977 26.7324C23.6602 26.3574 24.1172 25.748 24.4688 24.9043C24.832 24.0488 25.0957 22.9297 25.2598 21.5469C25.4355 20.1523 25.5234 18.4355 25.5234 16.3965ZM44.7539 25.2207C44.7539 25.9121 44.5957 26.5625 44.2793 27.1719C43.9629 27.7812 43.5352 28.3086 42.9961 28.7539C42.457 29.1992 41.8242 29.5508 41.0977 29.8086C40.3711 30.0664 39.5977 30.1953 38.7773 30.1953C38.2266 30.1953 37.6699 30.1191 37.1074 29.9668C36.5449 29.8145 36.0059 29.5625 35.4902 29.2109C34.9746 28.8594 34.4883 28.3965 34.0312 27.8223C33.5742 27.248 33.1758 26.5449 32.8359 25.7129C32.5078 24.8809 32.2441 23.9082 32.0449 22.7949C31.8574 21.6699 31.7637 20.3809 31.7637 18.9277C31.7637 17.5566 31.8574 16.3438 32.0449 15.2891C32.2441 14.2344 32.5078 13.3145 32.8359 12.5293C33.1758 11.7441 33.5684 11.0879 34.0137 10.5605C34.459 10.0215 34.9336 9.58789 35.4375 9.25977C35.9531 8.91992 36.4805 8.67969 37.0195 8.53906C37.5703 8.39844 38.1094 8.32812 38.6367 8.32812C39.4219 8.32812 40.166 8.45703 40.8691 8.71484C41.5723 8.96094 42.1875 9.33008 42.7148 9.82227C43.2422 10.3145 43.6582 10.9238 43.9629 11.6504C44.2793 12.3652 44.4375 13.1914 44.4375 14.1289C44.4375 14.9727 44.2617 15.8281 43.9102 16.6953C43.5703 17.5508 43.0605 18.3652 42.3809 19.1387C41.7012 19.9004 40.8574 20.5977 39.8496 21.2305C38.8535 21.8516 37.7051 22.3438 36.4043 22.707C36.4746 23.4336 36.5742 24.0957 36.7031 24.6934C36.8438 25.291 37.0137 25.8008 37.2129 26.2227C37.4238 26.6445 37.6641 26.9727 37.9336 27.207C38.2148 27.4414 38.5371 27.5586 38.9004 27.5586C39.1348 27.5469 39.3574 27.5059 39.5684 27.4355C39.7559 27.377 39.9434 27.2832 40.1309 27.1543C40.3301 27.0254 40.4941 26.8379 40.623 26.5918C40.3184 26.4512 40.084 26.2695 39.9199 26.0469C39.7559 25.8242 39.6328 25.6133 39.5508 25.4141C39.457 25.1797 39.4043 24.9336 39.3926 24.6758C39.3926 24.1133 39.5039 23.6562 39.7266 23.3047C39.9492 22.9531 40.2129 22.6777 40.5176 22.4785C40.8223 22.2793 41.1328 22.1445 41.4492 22.0742C41.7656 21.9922 42.0176 21.9512 42.2051 21.9512C42.4043 21.9512 42.6445 21.9922 42.9258 22.0742C43.2188 22.1562 43.5 22.3145 43.7695 22.5488C44.0391 22.7832 44.2676 23.1172 44.4551 23.5508C44.6543 23.9727 44.7539 24.5293 44.7539 25.2207ZM40.4121 14.1641C40.4121 13.7422 40.3711 13.3438 40.2891 12.9688C40.2188 12.582 40.1074 12.248 39.9551 11.9668C39.8145 11.6855 39.6328 11.4629 39.4102 11.2988C39.1992 11.123 38.9531 11.0352 38.6719 11.0352C38.1914 11.0352 37.7988 11.2578 37.4941 11.7031C37.1895 12.1367 36.9434 12.7168 36.7559 13.4434C36.5684 14.1699 36.4395 15.0078 36.3691 15.957C36.2988 16.9062 36.2637 17.8965 36.2637 18.9277V20.2109C36.8613 19.8945 37.4121 19.5195 37.916 19.0859C38.4316 18.6523 38.8711 18.1777 39.2344 17.6621C39.6094 17.1348 39.8965 16.5781 40.0957 15.9922C40.3066 15.4062 40.4121 14.7969 40.4121 14.1641ZM60.293 9.48828C59.7305 11.2344 59.2031 12.9277 58.7109 14.5684C58.2188 16.209 57.7559 17.8496 57.3223 19.4902C56.8887 21.1191 56.4785 22.7656 56.0918 24.4297C55.7051 26.0938 55.3418 27.8223 55.002 29.6152L49.9219 29.7207C49.6055 27.9746 49.2832 26.2871 48.9551 24.6582C48.6387 23.0176 48.2988 21.3887 47.9355 19.7715C47.584 18.1543 47.209 16.5254 46.8105 14.8848C46.4121 13.2441 45.9844 11.5508 45.5273 9.80469L50.5723 9.59375C50.8418 12.1016 51.1406 14.6621 51.4688 17.2754C51.7969 19.8887 52.1836 22.4551 52.6289 24.9746C53.2031 22.4316 53.666 19.8418 54.0176 17.2051C54.3809 14.5566 54.6621 11.9609 54.8613 9.41797L60.293 9.48828ZM73.4414 30.1074C72.5977 30.084 71.8008 30.0723 71.0508 30.0723C70.3008 30.0723 69.5977 30.0723 68.9414 30.0723C67.6055 30.0723 66.457 30.084 65.4961 30.1074C64.5469 30.1426 63.7559 30.1719 63.123 30.1953C62.3965 30.2305 61.7812 30.2656 61.2773 30.3008C61.3594 29.5156 61.4297 28.7188 61.4883 27.9102C61.5586 27.1016 61.6172 26.3047 61.6641 25.5195C61.7109 24.7344 61.752 23.9727 61.7871 23.2344C61.8223 22.4961 61.8516 21.7988 61.875 21.1426C61.9219 19.6191 61.9512 18.1484 61.9629 16.7305C61.9512 15.3242 61.9219 13.8828 61.875 12.4062C61.8516 11.7734 61.8223 11.1113 61.7871 10.4199C61.752 9.7168 61.7109 9.00195 61.6641 8.27539C61.6172 7.54883 61.5586 6.82227 61.4883 6.0957C61.4297 5.35742 61.3594 4.64258 61.2773 3.95117L66.4629 3.6875C66.2402 6.33594 66.0879 8.89062 66.0059 11.3516C65.9238 13.8008 65.8828 16.0625 65.8828 18.1367C65.8828 20.1289 65.9004 21.834 65.9355 23.252C65.9824 24.6699 66.0234 25.748 66.0586 26.4863H66.1289C67.043 26.4863 67.9336 26.416 68.8008 26.2754C69.6797 26.1348 70.4648 25.9766 71.1562 25.8008C71.9648 25.6016 72.7266 25.373 73.4414 25.1152C73.4297 25.2441 73.4238 25.4082 73.4238 25.6074C73.4121 25.7715 73.4062 25.9883 73.4062 26.2578C73.4062 26.5156 73.4062 26.832 73.4062 27.207C73.4062 27.582 73.4062 28.0098 73.4062 28.4902C73.4062 28.959 73.418 29.498 73.4414 30.1074ZM83.373 29.7207C83.3027 29.3574 83.2383 28.9883 83.1797 28.6133C83.1211 28.2383 83.0742 27.8516 83.0391 27.4531C82.5 28.25 81.8555 28.8594 81.1055 29.2812C80.3555 29.7148 79.5352 29.9316 78.6445 29.9316C78.1875 29.9316 77.7188 29.8555 77.2383 29.7031C76.7578 29.5625 76.3184 29.3105 75.9199 28.9473C75.5332 28.584 75.2109 28.0918 74.9531 27.4707C74.707 26.8379 74.584 26.041 74.584 25.0801C74.584 24.2832 74.7012 23.5918 74.9355 23.0059C75.1699 22.4082 75.4746 21.8867 75.8496 21.4414C76.2246 20.9961 76.6465 20.6094 77.1152 20.2812C77.584 19.9531 78.0469 19.6602 78.5039 19.4023C78.9727 19.1445 79.418 18.9043 79.8398 18.6816C80.2617 18.459 80.6074 18.2363 80.877 18.0137C81.3926 17.6035 81.8379 17.1699 82.2129 16.7129C82.5996 16.2441 82.9102 15.7578 83.1445 15.2539C83.0977 14.4453 83.0098 13.7832 82.8809 13.2676C82.7637 12.7402 82.6055 12.3242 82.4062 12.0195C82.207 11.7031 81.9609 11.4863 81.668 11.3691C81.3867 11.2402 81.0645 11.1758 80.7012 11.1758C80.1621 11.1758 79.7051 11.293 79.3301 11.5273C78.9668 11.7617 78.668 12.043 78.4336 12.3711C78.7266 12.5586 78.9492 12.7578 79.1016 12.9688C79.2656 13.1797 79.3887 13.3848 79.4707 13.584C79.5645 13.8066 79.6172 14.0352 79.6289 14.2695C79.6289 15.0664 79.4004 15.6758 78.9434 16.0977C78.498 16.5195 77.9238 16.7305 77.2207 16.7305C76.8574 16.7305 76.5234 16.6484 76.2188 16.4844C75.9141 16.3086 75.6445 16.0684 75.4102 15.7637C75.1875 15.459 75.0117 15.0957 74.8828 14.6738C74.7539 14.252 74.6895 13.7949 74.6895 13.3027C74.6895 12.8105 74.8008 12.2891 75.0234 11.7383C75.2461 11.1875 75.6035 10.6777 76.0957 10.209C76.5879 9.72852 77.2207 9.33594 77.9941 9.03125C78.7676 8.71484 79.7051 8.55664 80.8066 8.55664C81.9082 8.55664 82.8516 8.77344 83.6367 9.20703C84.4219 9.62891 85.0664 10.1973 85.5703 10.9121C86.0742 11.6152 86.4375 12.4297 86.6602 13.3555C86.8945 14.2812 87.0117 15.2363 87.0117 16.2207C87.0117 16.959 87.0059 17.7617 86.9941 18.6289C86.9824 19.4961 86.9766 20.3867 86.9766 21.3008C86.9766 22.0625 86.9824 22.8242 86.9941 23.5859C87.0059 24.3477 87.0293 25.0859 87.0645 25.8008C87.0996 26.5039 87.1465 27.1719 87.2051 27.8047C87.2637 28.4258 87.3398 28.9824 87.4336 29.4746L83.373 29.7207ZM83.1094 19.4199C82.6992 19.9121 82.2598 20.334 81.791 20.6855C81.4395 20.9316 81.0586 21.207 80.6484 21.5117C80.25 21.8164 79.875 22.1387 79.5234 22.4785C79.1836 22.8184 78.8965 23.1758 78.6621 23.5508C78.4395 23.9141 78.3281 24.2891 78.3281 24.6758C78.3281 25.2031 78.457 25.6543 78.7148 26.0293C78.9727 26.4043 79.3359 26.5918 79.8047 26.5918C80.2383 26.5918 80.625 26.4746 80.9648 26.2402C81.3047 26.0059 81.6035 25.7188 81.8613 25.3789C82.1309 25.0273 82.3535 24.6523 82.5293 24.2539C82.7168 23.8555 82.8633 23.4922 82.9688 23.1641L83.1094 19.4199ZM85.4297 6.30664C85.0898 6.40039 84.791 6.49414 84.5332 6.58789C84.2754 6.66992 84.0234 6.75195 83.7773 6.83398C83.543 6.91602 83.3086 6.99805 83.0742 7.08008C82.8516 7.16211 82.6055 7.23828 82.3359 7.30859C82.2305 6.875 82.1016 6.42969 81.9492 5.97266C81.7969 5.51562 81.6445 5.09375 81.4922 4.70703C81.3516 4.32031 81.2285 3.99219 81.123 3.72266C81.0176 3.44141 80.9648 3.25391 80.9648 3.16016C80.8008 3.73438 80.6484 4.29102 80.5078 4.83008C80.3789 5.28711 80.25 5.75586 80.1211 6.23633C79.9922 6.7168 79.8867 7.10938 79.8047 7.41406C79.5234 7.28516 79.2539 7.17383 78.9961 7.08008C78.7383 6.98633 78.4805 6.89844 78.2227 6.81641C77.9648 6.73437 77.7012 6.6582 77.4316 6.58789C77.1621 6.51758 76.875 6.43555 76.5703 6.3418C76.875 5.74414 77.209 5.10547 77.5723 4.42578C77.9355 3.74609 78.2812 3.10742 78.6094 2.50977C78.9961 1.81836 79.3828 1.12695 79.7695 0.435547C80.0273 0.458984 80.2734 0.476562 80.5078 0.488281C80.7422 0.5 80.9648 0.505859 81.1758 0.505859C81.375 0.505859 81.5625 0.505859 81.7383 0.505859C81.9258 0.494141 82.084 0.482422 82.2129 0.470703C82.3652 0.458984 82.5 0.447266 82.6172 0.435547C82.9805 1.26758 83.3379 2.05859 83.6895 2.80859C83.8418 3.125 83.9941 3.45313 84.1465 3.79297C84.3105 4.12109 84.4629 4.44336 84.6035 4.75977C84.7559 5.06445 84.9023 5.35156 85.043 5.62109C85.1836 5.89062 85.3125 6.11914 85.4297 6.30664ZM94.2188 9.52344L94.1133 10.9648C94.5 10.3203 94.9102 9.82812 95.3438 9.48828C95.7891 9.14844 96.1992 8.9082 96.5742 8.76758C96.9492 8.62695 97.2598 8.55078 97.5059 8.53906C97.7637 8.52734 97.9043 8.52148 97.9277 8.52148C98.7949 8.52148 99.5508 8.7207 100.195 9.11914C100.84 9.51758 101.373 10.0977 101.795 10.8594C102.217 11.6094 102.527 12.5293 102.727 13.6191C102.938 14.6973 103.043 15.9219 103.043 17.293C103.043 18.3008 103.025 19.332 102.99 20.3867C102.967 21.4297 102.908 22.4727 102.814 23.5156C102.732 24.5469 102.615 25.5547 102.463 26.5391C102.322 27.5234 102.129 28.4609 101.883 29.3516L97.7871 28.8594C98.0566 27.4648 98.2676 26.1641 98.4199 24.957C98.5723 23.75 98.6836 22.6953 98.7539 21.793C98.8359 20.7383 98.8828 19.7715 98.8945 18.8926C98.8945 17.7793 98.8594 16.8125 98.7891 15.9922C98.7188 15.1602 98.5898 14.4746 98.4023 13.9355C98.2266 13.3848 97.9805 12.9746 97.6641 12.7051C97.3477 12.4355 96.9434 12.3008 96.4512 12.3008C96.123 12.3711 95.7949 12.6055 95.4668 13.0039C95.1855 13.3438 94.8867 13.8887 94.5703 14.6387C94.2539 15.377 93.9785 16.4199 93.7441 17.7676C93.709 18.6816 93.6855 19.5898 93.6738 20.4922C93.6738 21.3828 93.6738 22.332 93.6738 23.3398C93.6738 24.1953 93.6738 25.1152 93.6738 26.0996C93.6738 27.084 93.6855 28.1973 93.709 29.4395L89.7188 29.3516C89.7539 28.1562 89.7773 26.8906 89.7891 25.5547C89.8125 24.207 89.8242 22.7129 89.8242 21.0723C89.8242 19.4434 89.8125 17.6797 89.7891 15.7812C89.7656 13.8828 89.7188 11.7734 89.6484 9.45312L94.2188 9.52344ZM118.898 2.61523C118.629 6.03711 118.424 9.43555 118.283 12.8105C118.143 16.1738 118.072 19.5664 118.072 22.9883C118.072 25.2734 118.107 27.5645 118.178 29.8613L114.17 29.9316L114.293 26.4512C113.824 27.3301 113.344 28.0039 112.852 28.4727C112.359 28.9414 111.908 29.293 111.498 29.5273C111.018 29.7969 110.543 29.9551 110.074 30.002C109.477 30.002 108.873 29.832 108.264 29.4922C107.654 29.1523 107.104 28.5664 106.611 27.7344C106.119 26.9023 105.715 25.7949 105.398 24.4121C105.082 23.0176 104.924 21.2715 104.924 19.1738C104.924 17.791 105.006 16.5723 105.17 15.5176C105.334 14.4512 105.557 13.5254 105.838 12.7402C106.119 11.9551 106.447 11.2988 106.822 10.7715C107.209 10.2324 107.619 9.79883 108.053 9.4707C108.498 9.14258 108.961 8.9082 109.441 8.76758C109.922 8.62695 110.396 8.55664 110.865 8.55664C111.182 8.58008 111.521 8.65625 111.885 8.78516C112.189 8.90234 112.535 9.07813 112.922 9.3125C113.32 9.53516 113.725 9.86914 114.135 10.3145C114.064 7.71289 113.959 5.12305 113.818 2.54492L118.898 2.61523ZM114.363 20.5801C114.363 18.3184 114.328 16.0508 114.258 13.7773C114.129 13.5898 113.988 13.3965 113.836 13.1973C113.695 12.998 113.537 12.8164 113.361 12.6523C113.186 12.4766 112.998 12.3359 112.799 12.2305C112.6 12.125 112.389 12.0723 112.166 12.0723C111.838 12.0723 111.504 12.1895 111.164 12.4238C110.836 12.6465 110.537 13.0391 110.268 13.6016C109.998 14.1523 109.775 14.8906 109.6 15.8164C109.436 16.7422 109.354 17.9082 109.354 19.3145C109.354 20.6152 109.412 21.6934 109.529 22.5488C109.646 23.4043 109.805 24.0898 110.004 24.6055C110.203 25.1094 110.432 25.4668 110.689 25.6777C110.947 25.877 111.223 25.9766 111.516 25.9766C111.961 25.9766 112.342 25.8301 112.658 25.5371C112.986 25.2324 113.256 24.8691 113.467 24.4473C113.689 24.0254 113.871 23.5918 114.012 23.1465C114.152 22.6895 114.27 22.3027 114.363 21.9863V20.5801ZM125.789 4.33789C125.789 4.71289 125.719 5.07031 125.578 5.41016C125.438 5.73828 125.244 6.02539 124.998 6.27148C124.752 6.51758 124.459 6.7168 124.119 6.86914C123.791 7.00977 123.439 7.08008 123.064 7.08008C122.689 7.08008 122.332 7.00977 121.992 6.86914C121.664 6.7168 121.377 6.51758 121.131 6.27148C120.885 6.02539 120.686 5.73828 120.533 5.41016C120.393 5.07031 120.322 4.71289 120.322 4.33789C120.322 3.96289 120.393 3.61133 120.533 3.2832C120.686 2.94336 120.885 2.65039 121.131 2.4043C121.377 2.1582 121.664 1.96484 121.992 1.82422C122.332 1.67187 122.689 1.5957 123.064 1.5957C123.439 1.5957 123.791 1.67187 124.119 1.82422C124.459 1.96484 124.752 2.1582 124.998 2.4043C125.244 2.65039 125.438 2.94336 125.578 3.2832C125.719 3.61133 125.789 3.96289 125.789 4.33789ZM125.789 9.66406C125.695 10.5898 125.613 11.5918 125.543 12.6699C125.484 13.7363 125.432 14.832 125.385 15.957C125.35 17.082 125.32 18.2129 125.297 19.3496C125.273 20.4863 125.256 21.5703 125.244 22.6016C125.232 23.6328 125.221 24.5996 125.209 25.502C125.209 26.3926 125.209 27.1602 125.209 27.8047V29.791L121.219 29.9316C121.242 29.123 121.254 28.3379 121.254 27.5762C121.254 26.8145 121.254 26.0527 121.254 25.291C121.254 23.9668 121.242 22.6777 121.219 21.4238C121.195 20.1582 121.154 18.8926 121.096 17.627C121.049 16.3613 120.984 15.0781 120.902 13.7773C120.82 12.4766 120.721 11.1289 120.604 9.73438L125.789 9.66406ZM136.354 29.7207C136.283 29.3574 136.219 28.9883 136.16 28.6133C136.102 28.2383 136.055 27.8516 136.02 27.4531C135.48 28.25 134.836 28.8594 134.086 29.2812C133.336 29.7148 132.516 29.9316 131.625 29.9316C131.168 29.9316 130.699 29.8555 130.219 29.7031C129.738 29.5625 129.299 29.3105 128.9 28.9473C128.514 28.584 128.191 28.0918 127.934 27.4707C127.688 26.8379 127.564 26.041 127.564 25.0801C127.564 24.2832 127.682 23.5918 127.916 23.0059C128.15 22.4082 128.455 21.8867 128.83 21.4414C129.205 20.9961 129.627 20.6094 130.096 20.2812C130.564 19.9531 131.027 19.6602 131.484 19.4023C131.953 19.1445 132.398 18.9043 132.82 18.6816C133.242 18.459 133.588 18.2363 133.857 18.0137C134.373 17.6035 134.818 17.1699 135.193 16.7129C135.58 16.2441 135.891 15.7578 136.125 15.2539C136.078 14.4453 135.99 13.7832 135.861 13.2676C135.744 12.7402 135.586 12.3242 135.387 12.0195C135.188 11.7031 134.941 11.4863 134.648 11.3691C134.367 11.2402 134.045 11.1758 133.682 11.1758C133.143 11.1758 132.686 11.293 132.311 11.5273C131.947 11.7617 131.648 12.043 131.414 12.3711C131.707 12.5586 131.93 12.7578 132.082 12.9688C132.246 13.1797 132.369 13.3848 132.451 13.584C132.545 13.8066 132.598 14.0352 132.609 14.2695C132.609 15.0664 132.381 15.6758 131.924 16.0977C131.479 16.5195 130.904 16.7305 130.201 16.7305C129.838 16.7305 129.504 16.6484 129.199 16.4844C128.895 16.3086 128.625 16.0684 128.391 15.7637C128.168 15.459 127.992 15.0957 127.863 14.6738C127.734 14.252 127.67 13.7949 127.67 13.3027C127.67 12.8105 127.781 12.2891 128.004 11.7383C128.227 11.1875 128.584 10.6777 129.076 10.209C129.568 9.72852 130.201 9.33594 130.975 9.03125C131.748 8.71484 132.686 8.55664 133.787 8.55664C134.889 8.55664 135.832 8.77344 136.617 9.20703C137.402 9.62891 138.047 10.1973 138.551 10.9121C139.055 11.6152 139.418 12.4297 139.641 13.3555C139.875 14.2812 139.992 15.2363 139.992 16.2207C139.992 16.959 139.986 17.7617 139.975 18.6289C139.963 19.4961 139.957 20.3867 139.957 21.3008C139.957 22.0625 139.963 22.8242 139.975 23.5859C139.986 24.3477 140.01 25.0859 140.045 25.8008C140.08 26.5039 140.127 27.1719 140.186 27.8047C140.244 28.4258 140.32 28.9824 140.414 29.4746L136.354 29.7207ZM136.09 19.4199C135.68 19.9121 135.24 20.334 134.771 20.6855C134.42 20.9316 134.039 21.207 133.629 21.5117C133.23 21.8164 132.855 22.1387 132.504 22.4785C132.164 22.8184 131.877 23.1758 131.643 23.5508C131.42 23.9141 131.309 24.2891 131.309 24.6758C131.309 25.2031 131.438 25.6543 131.695 26.0293C131.953 26.4043 132.316 26.5918 132.785 26.5918C133.219 26.5918 133.605 26.4746 133.945 26.2402C134.285 26.0059 134.584 25.7188 134.842 25.3789C135.111 25.0273 135.334 24.6523 135.51 24.2539C135.697 23.8555 135.844 23.4922 135.949 23.1641L136.09 19.4199ZM164.109 3.72266C163.746 4.47266 163.312 5.42188 162.809 6.57031C162.316 7.71875 161.777 9.00195 161.191 10.4199C160.617 11.8262 160.02 13.332 159.398 14.9375C158.777 16.543 158.168 18.166 157.57 19.8066C156.984 21.4473 156.416 23.0762 155.865 24.6934C155.326 26.2988 154.846 27.8164 154.424 29.2461C153.92 29.1758 153.404 29.1113 152.877 29.0527C152.432 29.0059 151.939 28.9648 151.4 28.9297C150.861 28.8828 150.346 28.8594 149.854 28.8594H149.432C150.088 27.6523 150.744 26.3281 151.4 24.8867C152.068 23.4453 152.719 21.957 153.352 20.4219C153.984 18.8867 154.594 17.334 155.18 15.7637C155.766 14.1934 156.311 12.6641 156.814 11.1758C157.318 9.6875 157.77 8.28125 158.168 6.95703C158.578 5.62109 158.918 4.42578 159.188 3.37109L164.109 3.72266ZM165.674 20.1406C166.811 19.7773 167.801 19.4492 168.645 19.1562C169.5 18.8516 170.262 18.5527 170.93 18.2598C171.609 17.9668 172.225 17.6738 172.775 17.3809C173.338 17.0762 173.889 16.748 174.428 16.3965C173.736 15.9629 173.004 15.5469 172.23 15.1484C171.469 14.75 170.701 14.3809 169.928 14.041C169.166 13.7012 168.416 13.3906 167.678 13.1094C166.951 12.8281 166.283 12.5938 165.674 12.4062L167.52 7.08008C168.879 8.08789 170.191 9.03711 171.457 9.92773C171.996 10.3027 172.547 10.6895 173.109 11.0879C173.684 11.4746 174.24 11.8438 174.779 12.1953C175.33 12.5469 175.846 12.8691 176.326 13.1621C176.818 13.4551 177.252 13.6953 177.627 13.8828C177.604 14.1523 177.586 14.4512 177.574 14.7793C177.539 15.3418 177.521 16.0859 177.521 17.0117C177.521 17.9727 177.557 18.9688 177.627 20C177.17 20.1523 176.66 20.3398 176.098 20.5625C175.535 20.7734 174.955 21.0078 174.357 21.2656C173.76 21.5117 173.15 21.7754 172.529 22.0566C171.92 22.3262 171.328 22.5898 170.754 22.8477C169.418 23.4688 168.041 24.1133 166.623 24.7812L165.674 20.1406Z" fill="url(#paint0_linear_9_107)"/>
<defs>
<linearGradient id="paint0_linear_9_107" x1="6.66827e-07" y1="17" x2="179" y2="17" gradientUnits="userSpaceOnUse">
<stop stop-color="#64BBD0"/>
<stop offset="1" stop-color="#7E77AB"/>
</linearGradient>
</defs>
</svg>
